<svg xmlns="http://www.w3.org/2000/svg" viewBox="0 0 120 120" role="img" aria-labelledby="logoTitle logoDesc">
  <title id="logoTitle">JK Utbildnings logotyp</title>
  <desc id="logoDesc">Stiliserad sköld med initialerna J och K</desc>
  <defs>
    <linearGradient id="gradient" x1="0%" x2="100%" y1="0%" y2="100%">
      <stop offset="0%" stop-color="#E93B56" />
      <stop offset="100%" stop-color="#9C1E0A" />
    </linearGradient>
  </defs>
  <rect x="6" y="6" width="108" height="108" rx="20" fill="url(#gradient)" />
  <path d="M35 35h18v18H35zM67 67h18v18H67z" fill="#F7F8EA" opacity="0.65" />
  <path d="M40 88V32h12c15 0 26 9 26 28 0 19-11 28-26 28h-12zm18-16c8 0 14-5 14-18 0-13-6-18-14-18h-6v36h6zm42-40v56h-12V56.5L74 64V52l14-6.5V32h12z" fill="#FFFFFF" />
</svg>
